<svg xmlns="http://www.w3.org/2000/svg" xmlns:xlink="http://www.w3.org/1999/xlink" width="32" height="32" viewBox="0 0 32 32"><defs><style>.a{fill:#fff;stroke:#707070;}.b{clip-path:url(#a);}.c{fill:#2b2d4a;}</style><clipPath id="a"><rect class="a" width="32" height="32" transform="translate(984 2289)"/></clipPath></defs><g class="b" transform="translate(-984 -2289)"><g transform="translate(988 2293)"><g transform="translate(6 7)"><path class="c" d="M4.869,9.631c-.058-.057-.306-.27-.51-.469a21.69,21.69,0,0,1-4.024-5.8A4.617,4.617,0,0,1,0,2.188a1.933,1.933,0,0,1,.218-.9A1.874,1.874,0,0,1,1.122.5,9.84,9.84,0,0,1,2.186.242,23.979,23.979,0,0,1,5.992,0,27.724,27.724,0,0,1,9.681.213a8.495,8.495,0,0,1,1.327.341A1.785,1.785,0,0,1,12,2.132v.057a4.879,4.879,0,0,1-.409,1.321A21.69,21.69,0,0,1,7.625,9.177a5.66,5.66,0,0,1-.554.482A1.783,1.783,0,0,1,6.007,10a1.875,1.875,0,0,1-1.138-.369"/></g></g></g></svg>