<svg xmlns="http://www.w3.org/2000/svg" xmlns:xlink="http://www.w3.org/1999/xlink" width="18" height="18" viewBox="0 0 18 18"><defs><style>.a,.c{fill:#2b2d4a;}.a{stroke:#707070;}.b{clip-path:url(#a);}</style><clipPath id="a"><rect class="a" width="18" height="18" transform="translate(-3788 -1842)"/></clipPath></defs><g class="b" transform="translate(3788 1842)"><g transform="translate(-3787 -1842)"><g transform="translate(3 6)"><path class="c" d="M5.646,3.133v.2a15.162,15.162,0,0,1-.12,2.049l-.063.3a2.159,2.159,0,0,1-.13.435,1.008,1.008,0,0,1-.89.551H4.412a2.8,2.8,0,0,1-.746-.226A12.58,12.58,0,0,1,.559,4.335l-.211-.22a1.99,1.99,0,0,1-.156-.186A.982.982,0,0,1,0,3.338a1.031,1.031,0,0,1,.208-.632l.216-.234.048-.05A12.263,12.263,0,0,1,3.746.187L3.882.135A2.25,2.25,0,0,1,4.412,0a1.111,1.111,0,0,1,.505.122,1.048,1.048,0,0,1,.449.5,5.439,5.439,0,0,1,.145.591A12.379,12.379,0,0,1,5.646,3.133Zm4.354.2a.839.839,0,0,1-.835.843L7.11,4a.662.662,0,0,1,0-1.323L9.165,2.49A.839.839,0,0,1,10,3.334Z" transform="translate(0)"/></g></g></g></svg>