<svg xmlns="http://www.w3.org/2000/svg" xmlns:xlink="http://www.w3.org/1999/xlink" width="1110" height="680" viewBox="0 0 1110 680"><defs><style>.a{fill:#fff;}.b{clip-path:url(#a);}.c{fill:#f4a335;}.c,.d{fill-rule:evenodd;}.d{fill:#f47735;}</style><clipPath id="a"><rect class="a" width="1110" height="680" rx="30" transform="translate(145 60)"/></clipPath></defs><g class="b" transform="translate(-145 -60)"><g transform="matrix(0.966, 0.259, -0.259, 0.966, -1066.871, -4309.479)"><path class="c" d="M298.579,122.428c48.821,13.438,114.064-10.014,160.123-9.813,42.584.187,86.437,13.789,116.457,43.978,14.09,14.167,24.758,31.555,32.041,50.16,16.45,42.023,14.126,93.434-14.613,128.232-35.9,43.467-98.7,49.5-152.008,67.874a301.65,301.65,0,0,0-106.642,63.957c-14.591,13.553-28.106,28.764-45.541,38.4-24.33,13.446-54.444,14.427-80.874,5.8s-49.333-26.2-67.422-47.3c-27.34-31.9-45.238-72.643-79.255-97.315C41.29,352.206,16.1,342.86,5.4,321.2c-3.949-8-5.47-17.033-5.4-25.949C.323,255.657,29.728,223.4,52.3,190.859A351.122,351.122,0,0,0,97.841,98.748c9.956-30.87,16.77-65.088,40.639-87.056,38.539-35.47,68.75,18.482,86.164,46.25a196.985,196.985,0,0,0,45.923,50.77,79.517,79.517,0,0,0,28.012,13.716" transform="translate(2288.508 4484.436) rotate(-29)"/><path class="d" d="M304.5,124.855c49.789,13.7,116.325-10.212,163.3-10.007,43.428.19,88.15,14.062,118.766,44.85,14.369,14.448,25.249,32.181,32.676,51.155,16.776,42.856,14.406,95.286-14.9,130.774-36.613,44.328-100.656,50.484-155.021,69.22a307.63,307.63,0,0,0-108.756,65.225c-14.881,13.821-28.664,29.335-46.444,39.16-24.812,13.713-55.523,14.713-82.477,5.91s-50.311-26.716-68.758-48.24C115,440.368,96.743,398.818,62.052,373.658c-19.943-14.47-45.629-24-56.545-46.088C1.48,319.414-.071,310.2,0,301.106c.327-40.382,30.315-73.275,53.331-106.464A358.082,358.082,0,0,0,99.78,100.706c10.153-31.482,17.1-66.378,41.444-88.782,39.3-36.173,70.113,18.848,87.872,47.167a200.89,200.89,0,0,0,46.834,51.777A81.094,81.094,0,0,0,304.5,124.855" transform="translate(2234.921 4576.253) rotate(-30)"/></g></g></svg>