<svg xmlns="http://www.w3.org/2000/svg" width="789" height="789" viewBox="0 0 789 789"><defs><style>.a{fill:#fff;opacity:0.3;}</style></defs><path class="a" d="M394.5,789a400.836,400.836,0,0,1-40.335-2.037A393.91,393.91,0,0,1,2.037,434.835a400.4,400.4,0,0,1,0-80.671A393.909,393.909,0,0,1,354.164,2.037a400.4,400.4,0,0,1,80.671,0A393.908,393.908,0,0,1,786.964,354.164a400.4,400.4,0,0,1,0,80.671A393.909,393.909,0,0,1,434.835,786.964,400.837,400.837,0,0,1,394.5,789Zm0-627a234.208,234.208,0,0,0-46.857,4.724,231.227,231.227,0,0,0-83.136,34.984A233.178,233.178,0,0,0,180.271,304a231.319,231.319,0,0,0-13.547,43.642,234.765,234.765,0,0,0,0,93.714,231.228,231.228,0,0,0,34.984,83.136A233.179,233.179,0,0,0,304,608.729a231.324,231.324,0,0,0,43.642,13.547,234.767,234.767,0,0,0,93.714,0,231.227,231.227,0,0,0,83.136-34.984A233.179,233.179,0,0,0,608.729,485a231.327,231.327,0,0,0,13.547-43.643,234.767,234.767,0,0,0,0-93.714,231.225,231.225,0,0,0-34.984-83.136A233.178,233.178,0,0,0,485,180.271a231.327,231.327,0,0,0-43.643-13.547A234.21,234.21,0,0,0,394.5,162Z" transform="translate(0 0)"/></svg>