<svg xmlns="http://www.w3.org/2000/svg" width="13.988" height="14" viewBox="0 0 13.988 14"><defs><style>.a{fill:#f25f84;}</style></defs><g transform="translate(-1.725 53.286)"><g transform="translate(1.725 -53.286)"><path class="a" d="M20.167,7.262a1.881,1.881,0,0,0-2.652,0h0l-3.786,3.8-3.807-3.8A1.875,1.875,0,0,0,7.27,9.912h0l3.807,3.809L7.27,17.507a1.882,1.882,0,0,0,0,2.65,1.9,1.9,0,0,0,1.326.558,1.865,1.865,0,0,0,1.326-.558h0l3.807-3.784,3.807,3.784a1.76,1.76,0,0,0,1.3.558,1.873,1.873,0,0,0,1.326-3.187h0L16.36,13.721l3.807-3.809A1.882,1.882,0,0,0,20.167,7.262Z" transform="translate(-6.725 -6.715)"/></g></g></svg>