<svg xmlns="http://www.w3.org/2000/svg" width="35.355" height="35.355" viewBox="0 0 35.355 35.355"><defs><style>.a{fill:#f57171;}</style></defs><g transform="translate(1.678 -1.836)"><path class="a" d="M27.377,14.877a12.181,12.181,0,0,1-12.5,12.5,12.181,12.181,0,0,1-12.5-12.5,12.181,12.181,0,0,1,12.5-12.5A12.181,12.181,0,0,1,27.377,14.877Zm-6.25-1.25h-5v-5a1.25,1.25,0,1,0-2.5,0v5h-5a1.25,1.25,0,1,0,0,2.5h5v5a1.25,1.25,0,0,0,2.5,0v-5h5a1.25,1.25,0,0,0,0-2.5Z" transform="translate(16 -1.526) rotate(45)"/></g></svg>