<svg xmlns="http://www.w3.org/2000/svg" xmlns:xlink="http://www.w3.org/1999/xlink" width="18" height="18" viewBox="0 0 18 18"><defs><style>.a{fill:#fff;stroke:#707070;}.b{clip-path:url(#a);}.c{fill:#2b2d4a;}</style><clipPath id="a"><rect class="a" width="18" height="18"/></clipPath></defs><g class="b"><g transform="translate(3 3)"><g transform="translate(0 0)"><path class="c" d="M11.327,10.636a.682.682,0,0,1,0,1.364H7.52a.682.682,0,0,1,0-1.364h3.807ZM8.687.466l.983.781a2.044,2.044,0,0,1,.764,1.168,1.6,1.6,0,0,1-.325,1.362L4.251,11.352a1.4,1.4,0,0,1-1.089.545l-2.335.029a.267.267,0,0,1-.262-.208l-.531-2.3A1.422,1.422,0,0,1,.3,8.22L4.456,2.845a.209.209,0,0,1,.283-.036L6.486,4.2a.564.564,0,0,0,.432.122.63.63,0,0,0,.545-.7A.7.7,0,0,0,7.243,3.2l-1.7-1.362a.252.252,0,0,1-.042-.35L6.161.638A1.722,1.722,0,0,1,8.687.466Z" transform="translate(0 0)"/></g></g></g></svg>