<svg xmlns="http://www.w3.org/2000/svg" xmlns:xlink="http://www.w3.org/1999/xlink" width="30" height="30" viewBox="0 0 30 30"><defs><style>.a{fill:#fff;stroke:#707070;}.b{clip-path:url(#a);}.c{fill:#333;}</style><clipPath id="a"><rect class="a" width="30" height="30" transform="translate(-383 2561)"/></clipPath></defs><g class="b" transform="translate(383 -2561)"><g transform="translate(-380.25 2563.75)"><path class="c" d="M14.625,21.161h9.407l-1.843,1.85L23.2,24.018l3.571-3.571L23.2,16.875l-1.007,1.007,1.843,1.85H14.625Z" transform="translate(-4.518 -5.339)"/><path class="c" d="M16.536,10.821V7.964a.714.714,0,0,0-.207-.507l-5-5a.714.714,0,0,0-.507-.207H3.679A1.429,1.429,0,0,0,2.25,3.679V20.821A1.429,1.429,0,0,0,3.679,22.25H15.107a1.429,1.429,0,0,0,1.429-1.429V19.393H15.107v1.429H3.679V3.679H9.393V7.964a1.429,1.429,0,0,0,1.429,1.429h4.286v1.429ZM10.821,7.964V3.971l3.993,3.993Z" transform="translate(0)"/></g></g></svg>