<svg xmlns="http://www.w3.org/2000/svg" xmlns:xlink="http://www.w3.org/1999/xlink" width="32" height="32" viewBox="0 0 32 32"><defs><style>.a{fill:#fff;stroke:#707070;}.b{clip-path:url(#a);}.c{fill:#2c2c2c;}</style><clipPath id="a"><rect class="a" width="32" height="32" transform="translate(919 514)"/></clipPath></defs><g class="b" transform="translate(-919 -514)"><g transform="translate(923 518)"><g transform="translate(2 4)"><path class="c" d="M10,0a9.265,9.265,0,0,1,5.737,2.046,14.171,14.171,0,0,1,4.2,5.663.728.728,0,0,1,0,.572C17.854,13.11,14.137,16,10,16H9.99C5.863,16,2.146,13.11.059,8.281a.728.728,0,0,1,0-.572C2.146,2.88,5.863,0,9.99,0h0Zm0,4.121A3.874,3.874,0,1,0,13.893,8,3.89,3.89,0,0,0,10,4.121Zm0,1.452A2.419,2.419,0,1,1,7.562,8a2.531,2.531,0,0,1,.049-.475H7.66a2,2,0,0,0,2-1.92A1.946,1.946,0,0,1,10,5.574Z"/></g></g></g></svg>