<svg xmlns="http://www.w3.org/2000/svg" xmlns:xlink="http://www.w3.org/1999/xlink" width="32" height="32" viewBox="0 0 32 32"><defs><style>.a{fill:#fff;stroke:#707070;}.b{clip-path:url(#a);}.c{fill:#2c2c2c;}</style><clipPath id="a"><rect class="a" width="32" height="32" transform="translate(1303 118)"/></clipPath></defs><g class="b" transform="translate(-1303 -118)"><path class="c" d="M20.563,10.563a10,10,0,1,1-10-10A10,10,0,0,1,20.563,10.563ZM10.831,3.869a5.223,5.223,0,0,0-4.7,2.571.485.485,0,0,0,.109.656l1.4,1.061a.484.484,0,0,0,.672-.086c.72-.914,1.214-1.443,2.311-1.443.824,0,1.843.53,1.843,1.329,0,.6-.5.914-1.312,1.37-.949.532-2.2,1.194-2.2,2.849v.161a.484.484,0,0,0,.484.484h2.258a.484.484,0,0,0,.484-.484v-.054c0-1.148,3.354-1.2,3.354-4.3C15.53,5.643,13.1,3.869,10.831,3.869Zm-.268,10a1.855,1.855,0,1,0,1.855,1.855A1.857,1.857,0,0,0,10.563,13.869Z" transform="translate(1308.438 123.438)"/></g></svg>