<svg xmlns="http://www.w3.org/2000/svg" width="25.752" height="30" viewBox="0 0 25.752 30"><defs><style>.a{fill:#fff;}</style></defs><g transform="translate(-3.5 -2)"><g transform="translate(3.5 2)"><path class="a" d="M16.573,0a1.14,1.14,0,0,1,.191.016l.206,0a1.133,1.133,0,0,1,.817.348h0l7.649,7.968a1.133,1.133,0,0,1,.316.784h0V22.961A7,7,0,0,1,18.988,30H6.923A6.911,6.911,0,0,1,0,22.961H0V6.782A6.9,6.9,0,0,1,6.923.018h0l9.46,0A1.14,1.14,0,0,1,16.573,0ZM15.44,2.281l-8.518,0a4.637,4.637,0,0,0-4.658,4.5h0V22.961a4.647,4.647,0,0,0,4.658,4.774H18.988a4.74,4.74,0,0,0,4.5-4.774h0l0-12.415-1.322,0-1.714,0a5.021,5.021,0,0,1-5-4.737l-.008-.285Zm.846,17.062A1.133,1.133,0,0,1,16.44,21.6l-.154.01H8.136a1.133,1.133,0,0,1-.154-2.255l.154-.01ZM13.2,11.864a1.133,1.133,0,0,1,.154,2.255l-.154.01H8.135a1.133,1.133,0,0,1-.154-2.255l.154-.01Zm4.5-8.311V5.526a2.755,2.755,0,0,0,2.748,2.756h1.793Z" transform="translate(0 0)"/></g></g></svg>