<svg xmlns="http://www.w3.org/2000/svg" width="14.661" height="12.829" viewBox="0 0 14.661 12.829"><defs><style>.a{fill:#172b4d;}</style></defs><path class="a" d="M6,8.416A.916.916,0,0,1,6.916,7.5H19.745a.916.916,0,0,1,0,1.833H6.916A.916.916,0,0,1,6,8.416Z" transform="translate(-6 -7.5)"/><path class="a" d="M6,26.416a.916.916,0,0,1,.916-.916H19.745a.916.916,0,0,1,0,1.833H6.916A.916.916,0,0,1,6,26.416Z" transform="translate(-6 -14.504)"/><path class="a" d="M6.916,16.5a.916.916,0,0,0,0,1.833h7.331a.916.916,0,0,0,0-1.833Z" transform="translate(-6 -11.002)"/></svg>