<svg xmlns="http://www.w3.org/2000/svg" xmlns:xlink="http://www.w3.org/1999/xlink" width="188" height="132" viewBox="0 0 188 132"><defs><style>.a{fill:#fff;}.b{clip-path:url(#a);}.c{fill:#f4a335;}.c,.d{fill-rule:evenodd;}.d{fill:#f47735;}</style><clipPath id="a"><rect class="a" width="188" height="132" rx="15" transform="translate(15)"/></clipPath></defs><g class="b" transform="translate(-15)"><g transform="translate(3344.662 3817.067) rotate(169)"><path class="c" d="M164.968,67.643c26.974,7.424,63.022-5.533,88.47-5.422,23.528.1,47.757,7.619,64.344,24.3a81.146,81.146,0,0,1,17.7,27.714c9.089,23.218,7.805,51.623-8.074,70.85-19.836,24.016-54.533,27.351-83.986,37.5A166.665,166.665,0,0,0,184.5,257.922c-8.062,7.488-15.529,15.893-25.162,21.216-13.443,7.429-30.081,7.971-44.684,3.2S87.4,267.866,77.407,256.2C62.3,238.579,52.413,216.069,33.618,202.437c-10.8-7.84-24.72-13-30.634-24.969A31.8,31.8,0,0,1,0,163.131c.177-21.878,16.424-39.7,28.893-57.679A194,194,0,0,0,54.058,54.559C59.559,37.5,63.324,18.6,76.511,6.46,97.8-13.138,114.5,16.671,124.118,32.014a108.837,108.837,0,0,0,25.373,28.051,43.934,43.934,0,0,0,15.477,7.578" transform="translate(2264.528 4350.484) rotate(-29)"/><path class="d" d="M168.238,68.984c27.509,7.572,64.271-5.642,90.223-5.529,23.995.105,48.7,7.77,65.619,24.78A82.754,82.754,0,0,1,342.135,116.5c9.269,23.678,7.96,52.646-8.234,72.254C313.672,213.244,278.288,216.645,248.25,227a169.969,169.969,0,0,0-60.089,36.038c-8.222,7.636-15.837,16.208-25.661,21.636-13.709,7.576-30.677,8.129-45.57,3.266s-27.8-14.761-37.99-26.653c-15.405-17.975-25.49-40.932-44.657-54.833-11.019-7.995-25.21-13.261-31.242-25.464A32.428,32.428,0,0,1,0,166.365c.181-22.311,16.749-40.485,29.466-58.823a197.845,197.845,0,0,0,25.662-51.9c5.61-17.394,9.449-36.674,22.9-49.053C99.744-13.4,116.766,17,126.579,32.648a110.994,110.994,0,0,0,25.876,28.607,44.805,44.805,0,0,0,15.784,7.729" transform="matrix(0.829, -0.559, 0.559, 0.829, 2257.611, 4386.073)"/></g></g></svg>