<svg xmlns="http://www.w3.org/2000/svg" xmlns:xlink="http://www.w3.org/1999/xlink" width="24" height="24" viewBox="0 0 24 24"><defs><style>.a{fill:#fff;stroke:#707070;}.b{clip-path:url(#a);}.c{fill:#2b2d4a;}</style><clipPath id="a"><rect class="a" width="24" height="24"/></clipPath></defs><g class="b"><g transform="translate(5.333 5.333)"><g transform="translate(0 0)"><path class="c" d="M10.414,10.436a.657.657,0,0,1,.928,0h0l1.7,1.375h.03a.9.9,0,0,1,0,1.261.876.876,0,0,1-1.248,0h0l-1.413-1.62-.054-.061a.723.723,0,0,1,.054-.956ZM5.718,0A5.688,5.688,0,0,1,9.762,1.693,5.812,5.812,0,0,1,11.437,5.78a5.749,5.749,0,0,1-5.718,5.78A5.749,5.749,0,0,1,0,5.78,5.749,5.749,0,0,1,5.718,0Z" transform="translate(0 0)"/></g></g></g></svg>