<svg xmlns="http://www.w3.org/2000/svg" width="412.75" height="86.502" viewBox="0 0 412.75 86.502"><defs><style>.a,.c{fill:none;}.a,.b,.c{stroke:#000;stroke-miterlimit:2.613;}.a{stroke-width:1.5px;}.b{fill:rgba(0,0,0,0);}.d{fill:#2c2c2c;font-size:24px;font-family:Jost-Regular, Jost;}.e,.g{font-family:Jost-Medium, Jost;font-weight:500;}.f{font-family:Jost-Bold, Jost;font-weight:700;}.g{fill:#f47735;font-size:16px;}</style></defs><g transform="translate(-224.25 -109.25)"><g transform="translate(206.262 91.266)"><path class="a" d="M61.238,18.734a42.5,42.5,0,1,1-42.5,42.5A42.5,42.5,0,0,1,61.238,18.734Z" transform="translate(0 0)"/><path d="M347.431,226.957a1.109,1.109,0,1,0,1.109,1.109A1.109,1.109,0,0,0,347.431,226.957Zm-.2,1.2a.311.311,0,1,1,.31-.311A.311.311,0,0,1,347.234,228.154Z" transform="translate(-264.382 -168.05)"/><path d="M121.253,227.1a1.109,1.109,0,1,0,1.109,1.109A1.109,1.109,0,0,0,121.253,227.1Zm.213,1.168a.311.311,0,1,1,.312-.311A.311.311,0,0,1,121.466,228.272Z" transform="translate(-81.841 -168.168)"/><path d="M75.539,36.963h0A38.58,38.58,0,0,0,36.965,75.535h0v0h0a38.578,38.578,0,0,0,38.572,38.569h0A38.578,38.578,0,0,0,114.11,75.536h0A38.58,38.58,0,0,0,75.539,36.963m0-.511h0v0a39.083,39.083,0,0,1,39.081,39.081h0a39.083,39.083,0,0,1-39.081,39.081v0h0v0a39.083,39.083,0,0,1-39.08-39.08v0a39.087,39.087,0,0,1,39.08-39.081v0Z" transform="translate(-14.3 -14.3)"/><path class="b" d="M73.589,99.047a34.872,34.872,0,0,0-12.333,21.006" transform="translate(-34.315 -64.818)"/><path class="c" d="M161.257,58.854a37.593,37.593,0,0,0-15.7,4.984" transform="translate(-102.347 -32.38)"/><path class="c" d="M258.517,59.844a34.724,34.724,0,0,0-4.181-.609" transform="translate(-190.143 -32.687)"/><path class="c" d="M326.328,100.611a34.861,34.861,0,0,0-22.062-29.736" transform="translate(-230.44 -42.081)"/><path class="c" d="M75.538,36.452h0v0a39.083,39.083,0,0,1,39.081,39.081h0a39.083,39.083,0,0,1-39.081,39.081v0h0v0a39.083,39.083,0,0,1-39.08-39.08v0a39.087,39.087,0,0,1,39.08-39.081v0Z" transform="translate(-14.3 -14.3)"/><path d="M119.528,358.381l1.3,1.795,2.109-.686-1.3,1.795,1.3,1.793-2.109-.687-1.3,1.8v-2.218l-2.11-.684,2.11-.687Z" transform="translate(-79.641 -274.118)"/><path d="M333.525,360.281l-1.3,1.795-2.109-.686,1.3,1.795-1.3,1.793,2.109-.685,1.3,1.794v-2.216l2.11-.686-2.11-.686Z" transform="translate(-251.3 -275.651)"/><rect width="0.708" height="20.93" transform="translate(60.884 38.587)"/><path d="M145.668,113.375a4.11,4.11,0,0,1,.253,1.48,4.491,4.491,0,0,1-.113,1.026,11.422,11.422,0,0,1,3.908-.28l-1.139-2.48c-.545,0-1.071.024-1.576.072q-.686.064-1.332.182m-.976,2.816a3.619,3.619,0,0,0-.385-1.283,3.735,3.735,0,0,0-.72-.993,12.636,12.636,0,0,0-3.929,2.166h0l-.188.157-.179.158a11.2,11.2,0,0,0-.829.818l-.009.011,0,0v0h0l0,0a18.454,18.454,0,0,1-5.128,3.117A18.775,18.775,0,0,0,130.4,121.9a16.173,16.173,0,0,1,2.83-.714,12.769,12.769,0,0,0,6.139-2.526l.033-.02a27.445,27.445,0,0,1,5.288-2.449m-.629-2.43a4.477,4.477,0,0,1,.634.948,4.2,4.2,0,0,1,.434,1.35l.176-.048a3.7,3.7,0,0,0,.176-1.155,3.582,3.582,0,0,0-.265-1.392q-.6.129-1.155.3m4.6-1.073h.057l.2.127,1.352,2.948.026.137a.217.217,0,0,1-.246.184,11.454,11.454,0,0,0-5.19.511,26.835,26.835,0,0,0-5.228,2.416,13.142,13.142,0,0,1-6.316,2.6,11.966,11.966,0,0,0-3.952,1.255v0l-.238-.017-.039-.3a10.8,10.8,0,0,1,4.056-2.587,17.98,17.98,0,0,0,5.013-3.041l0,0a11.36,11.36,0,0,1,.85-.842l.185-.162.194-.163a13.46,13.46,0,0,1,6.012-2.76,15.682,15.682,0,0,1,1.567-.225c.542-.05,1.108-.076,1.7-.074" transform="translate(-89.055 -75.827)"/><path d="M181.7,129.093a4.685,4.685,0,0,0,.142.922,4.038,4.038,0,0,0,.669,1.447c.133-.075.265-.149.4-.22a3.548,3.548,0,0,1-.644-1.336,3.724,3.724,0,0,1-.113-1.188l-.165.133-.287.243" transform="translate(-131.52 -88.764)"/><path d="M176.93,133.7a4.814,4.814,0,0,0,.208.633,4.114,4.114,0,0,0,.794,1.283l.189-.142.194-.111a3.534,3.534,0,0,1-.773-1.194,3.9,3.9,0,0,1-.24-.859c-.13.131-.253.261-.372.391" transform="translate(-127.671 -92.472)"/><path d="M148.886,157.266l17.24,7.137-.142.344-17.238-7.139Z" transform="translate(-104.925 -111.805)"/><path d="M135.831,153.336l.33.93-3.1.776.412-.588Z" transform="translate(-92.27 -108.633)"/><path d="M243.651,113.375a4.145,4.145,0,0,0-.251,1.48,4.536,4.536,0,0,0,.112,1.026,11.425,11.425,0,0,0-3.908-.28l1.141-2.48q.815,0,1.574.072.687.064,1.332.182m.975,2.816a3.617,3.617,0,0,1,.386-1.283,3.718,3.718,0,0,1,.72-.993,12.612,12.612,0,0,1,3.928,2.166h0l.187.157.179.158a10.715,10.715,0,0,1,.828.818l.01.011,0,0v0h0l0,0A18.432,18.432,0,0,0,256,120.35a18.866,18.866,0,0,1,2.918,1.549,16.207,16.207,0,0,0-2.83-.714,12.768,12.768,0,0,1-6.141-2.526l-.032-.02a27.435,27.435,0,0,0-5.289-2.449m.632-2.43a4.477,4.477,0,0,0-.637.948,4.277,4.277,0,0,0-.434,1.35l-.175-.048a3.69,3.69,0,0,1-.176-1.155,3.554,3.554,0,0,1,.265-1.392q.6.129,1.157.3m-4.6-1.073h-.056l-.2.127-1.354,2.948-.027.137a.22.22,0,0,0,.247.184,11.451,11.451,0,0,1,5.19.511,26.839,26.839,0,0,1,5.227,2.416,13.149,13.149,0,0,0,6.315,2.6,11.931,11.931,0,0,1,3.952,1.255v0l.239-.017.04-.3a10.812,10.812,0,0,0-4.056-2.587,18.017,18.017,0,0,1-5.014-3.041l0,0a11.662,11.662,0,0,0-.848-.842l-.187-.162-.195-.163a13.459,13.459,0,0,0-6.012-2.76,15.586,15.586,0,0,0-1.567-.225c-.542-.05-1.109-.076-1.7-.074" transform="translate(-177.789 -75.827)"/><path d="M291.285,129.093a4.819,4.819,0,0,1-.142.922,4.034,4.034,0,0,1-.669,1.447c-.133-.075-.267-.149-.4-.22a3.525,3.525,0,0,0,.644-1.336,3.7,3.7,0,0,0,.113-1.188l.165.133.287.243" transform="translate(-218.988 -88.764)"/><path d="M295.322,133.7a5.026,5.026,0,0,1-.205.633,4.171,4.171,0,0,1-.8,1.283l-.189-.142-.194-.111a3.574,3.574,0,0,0,.773-1.194,3.937,3.937,0,0,0,.24-.859c.13.131.253.261.372.391" transform="translate(-222.104 -92.472)"/><path d="M256.458,157.266,239.219,164.4l.142.344,17.239-7.139Z" transform="translate(-177.943 -111.805)"/><path d="M329.264,153.336l-.33.93,3.1.776-.412-.588Z" transform="translate(-250.349 -108.633)"/><path d="M227.73,99.866l1.929-3.224a.293.293,0,0,1,.4-.1l.1.108,1.925,3.216v.3l-1.929,3.224a.291.291,0,0,1-.4.1l-.1-.1-1.929-3.224v-.3Z" transform="translate(-168.67 -62.764)"/><path d="M232.368,100.93l-1.591,2.659,1.591,2.659,1.592-2.659Z" transform="translate(-171.13 -66.338)"/><path d="M136.181,202.911c2.1-9.387-3.069-11.145-.412-21.639.044-.176.085-.352.12-.531s.068-.357.1-.538a10.782,10.782,0,0,0,.108-1.445c.033-1.974.063-3.526,1.685-4.874a11.359,11.359,0,0,1,1.86-1.24c5.612-3.043,14.691-3.08,19.083-7.742a27.209,27.209,0,0,0-2.387-4.427c-3.537,6.453-17.13,3.41-22.937,10.744-5.937-7.839-19.061-4.532-22.777-10.756a27.362,27.362,0,0,0-2.378,4.4c7.6,6.625,14.85,3.065,20.595,9.194,1.915,1.788,2.318,4.086,1.951,6.679a50.136,50.136,0,0,0-.753,7.93,11.779,11.779,0,0,0,.708,4.657,12.079,12.079,0,0,1-.245,9.557,27.706,27.706,0,0,0,2.975.16v0h0v0q1.371,0,2.706-.133" transform="translate(-72.237 -114.385)"/><path d="M122.24,94.816h0a27.428,27.428,0,0,0-27.421,27.422h0v0h0a27.429,27.429,0,0,0,27.421,27.422v0h0v0a27.431,27.431,0,0,0,27.421-27.422h0v0h0A27.427,27.427,0,0,0,122.24,94.816m0-.5h0v0a27.921,27.921,0,0,1,27.918,27.917v0a27.92,27.92,0,0,1-27.918,27.916v0h0v0A27.916,27.916,0,0,1,94.322,122.24v0a27.917,27.917,0,0,1,27.916-27.917v0Z" transform="translate(-61.001 -61.003)"/><g transform="translate(28.565 27.028)"><path d="M70.133,176.077a1.86,1.86,0,0,1,1.354-.275,1.55,1.55,0,0,1,.965,1.225,1.854,1.854,0,0,1,1.688-.549,1.315,1.315,0,0,1,.837.857,2.53,2.53,0,0,1-.015,1.66,3.471,3.471,0,0,1-.835,1.421,14.489,14.489,0,0,1-3.675,1.9l-.054-.7a22.391,22.391,0,0,0,2.507-1.306,1.911,1.911,0,0,0,.772-1.057,1.841,1.841,0,0,0,.037-1.088.766.766,0,0,0-.486-.563.874.874,0,0,0-.724.134,8.533,8.533,0,0,1-.231,1.021q-.1.344-.357,1.038l-1.262-.107c.143-.367.261-.713.357-1.039q.529-1.784-.281-2.023c-.225-.066-.788.316-1.057.61Z" transform="translate(-69.674 -153.759)"/><path d="M87.826,134.708l4.972,3.01-.16.261-1.608.494-2.012-1.231-.941,1.538q-.677,1.108.17,1.626.694.424,2.645-.341l.086.627q-2.625,1.066-3.846.318a1.541,1.541,0,0,1-.73-.971,1.463,1.463,0,0,1,.187-1.137l1.4-2.29-.91-.527Z" transform="translate(-83.14 -120.627)"/><path d="M111.318,109.8a4.773,4.773,0,0,1,1.032.707,2.406,2.406,0,0,1,.54,2.556,27.207,27.207,0,0,0,3.651-.769l-.066.635q-5.252,1.338-6.025.57-.5-.5.125-1.118a3.251,3.251,0,0,1,.985-.6,1.278,1.278,0,0,0-.313-.707,2.332,2.332,0,0,0-.752-.3Z" transform="translate(-102.406 -100.52)"/><path d="M156.7,70.359l2.485,5.517-.28.126-1.608-.487-.532-1.186a2.668,2.668,0,0,1-.915.674,3.342,3.342,0,0,1-1.861.2q-1.072-.151-1.321-.69l-.692-1.54Zm-.5,2.712-.78-1.819-2,1.078.852,1.895a.562.562,0,0,0,.837.332,1.1,1.1,0,0,0,.324-.251A9.243,9.243,0,0,0,156.2,73.071Z" transform="translate(-136.1 -68.693)"/><path d="M196.958,61.722l.848,2.254-2.366.455a2.4,2.4,0,0,0-1.059.451.7.7,0,0,0-.345.678q.111.578.995.407a3.8,3.8,0,0,0,.63-.186.6.6,0,0,1,.229-.583,1.718,1.718,0,0,1,.838-.367,1.845,1.845,0,0,1,1.072.063.75.75,0,0,1,.5.537q.115.592-.656.975l1.546.735-1.078.4-1.519-.731a3.509,3.509,0,0,1-2.538-.286,2.179,2.179,0,0,1-1.126-1.412,1.156,1.156,0,0,1,.334-1.063,2.517,2.517,0,0,1,1.379-.649l1.615-.31-.243-1.155Z" transform="translate(-169.133 -61.722)"/><path d="M307.774,79.157l-2.767,5.083-.178-.1-.671-1.621.994-1.822a3.984,3.984,0,0,1-1.406-.407,5.139,5.139,0,0,1-1.121-.849,4.06,4.06,0,0,1-1.077.325q.31,1.082.939,2.751l-.575.045q-1.551-3.85-1-4.863a.659.659,0,0,1,.436-.344.734.734,0,0,1,.545.069,2.486,2.486,0,0,1,.586.5,2.2,2.2,0,0,0,.407-.5,3.416,3.416,0,0,0,.274-.8Zm-1.377-.7-2.2-1.063a3.416,3.416,0,0,1-.323.9,2.368,2.368,0,0,1-.46.6,3,3,0,0,0,.77.62,1.648,1.648,0,0,0,1.549.12Z" transform="translate(-256.182 -73.746)"/><path d="M346.054,106.8a4.7,4.7,0,0,1-.66,1.067,2.4,2.4,0,0,1-2.532.637,26.777,26.777,0,0,0,.907,3.62l-.637-.042q-1.537-5.2-.8-6,.475-.514,1.122.083a3.258,3.258,0,0,1,.64.962,1.267,1.267,0,0,0,.695-.34,2.281,2.281,0,0,0,.321-.76Z" transform="translate(-289.535 -97.332)"/><path d="M369.277,132.939l-1.16.711a1.978,1.978,0,0,1,.579.6,2.076,2.076,0,0,1,.252,1.761,2.306,2.306,0,0,1-.945,1.378,2.791,2.791,0,0,1-1.733.383l.19-1.458a2.538,2.538,0,0,0,1.658-.184.539.539,0,0,0,.19-.842,4.279,4.279,0,0,0-1.314-.918l-2.706,1.728-.145-.225.241-1.712,1.02-.651a3.161,3.161,0,0,1-1.057-.89,1.772,1.772,0,0,1-.209-1.369,1.874,1.874,0,0,1,.86-1.224q1-.641,1.717.476a3.236,3.236,0,0,1,.376,1.929l1.353-.792Zm-2.694-.184.086-.055a3.148,3.148,0,0,0-.379-.959,2.205,2.205,0,0,0-.654-.675.587.587,0,0,0-.675-.065.385.385,0,0,0-.173.317.688.688,0,0,0,.119.432A3.375,3.375,0,0,0,366.583,132.755Z" transform="translate(-307.285 -116.659)"/><path d="M383.968,175.73l-5.514,1.967-.087-.239.6-1.62,4.471-1.575Z" transform="translate(-318.81 -152.55)"/><path d="M391.674,200.674a5.034,5.034,0,0,1-1.215.44,2.408,2.408,0,0,1-2.4-1.039,27.126,27.126,0,0,0-1.486,3.423l-.478-.421q1.947-5.059,3.021-5.244.691-.119.84.75a3.261,3.261,0,0,1-.077,1.153,1.281,1.281,0,0,0,.758.154,2.961,2.961,0,0,0,.834-.45Z" transform="translate(-325.049 -171.561)"/></g><path d="M187.985,49.694l1.149-.1a2.731,2.731,0,0,1,1.05.158,3.349,3.349,0,0,1,1.117.617,6.47,6.47,0,0,1,1.765,1.813l-.642.552q-.765-1.074-.987-1.326a1.625,1.625,0,0,0-.706-.418,2.78,2.78,0,0,0-1.142-.107l-1.121.1Z" transform="translate(-136.594 -24.901)"/><path d="M160.469,87.322q.2-.271.868-1.408l.931.239c-.758,1.327-2.721,4.019-3.015,4.019l-.918-.611S160.335,87.5,160.469,87.322Z" transform="translate(-112.665 -54.219)"/><g transform="translate(58.985 25.719)"><path d="M228.756,55.118a1.5,1.5,0,0,0-.885,1.29q-.021.418.543.817a2.645,2.645,0,0,0,1.375.454,3.557,3.557,0,0,0,.646-.016,3.98,3.98,0,0,1-1.01,1.151,1.687,1.687,0,0,0-1.168-.741.851.851,0,0,0-.622.189.825.825,0,0,0-.29.584.933.933,0,0,0,.354.775,1.687,1.687,0,0,0,1.017.381,3.013,3.013,0,0,0,.654-.033l1.512,1.928.76-.19-1.5-1.958a2.645,2.645,0,0,0,1.9-2.285,2.722,2.722,0,0,0-.6-1.853A1.894,1.894,0,0,0,230.331,55,2.815,2.815,0,0,0,228.756,55.118Zm1.929,1.955a.643.643,0,0,1-.51.218.674.674,0,0,1-.461-.236.72.72,0,0,1-.162-.546.831.831,0,0,1,.594-.88.911.911,0,0,1,.506.041.705.705,0,0,1,.288.723A1.006,1.006,0,0,1,230.685,57.073Z" transform="translate(-227.343 -54.937)"/><path d="M258.275,60.436l-.314,4.762,1.207,1.2.28.019.421-6.2Z" transform="translate(-252.054 -59.2)"/></g><path d="M83.174,142.854l.579.338c-.758,1.327-2.653,4.534-2.942,4.968l-.675-.434S82.727,143.611,83.174,142.854Z" transform="translate(-49.551 -100.173)"/><path d="M277.56,211.03a1.286,1.286,0,0,0-.678-.414c-.3-.053-.3-.577-.385-.871l-.368-.992a4.413,4.413,0,0,0-.742-1.167,8.168,8.168,0,0,0-1.6-2.205c-2.618-2.443-4.875-3.307-.6.026.465.678,1,1.3,1.412,2.036a5.447,5.447,0,0,1,1.449,3.057c-.179.751-.734.769-1.376,1.018-.5.072-1,.144-1.521.215a29.394,29.394,0,0,1-5.72-.465c-.249-.125-.5-.232-.768-.339a5.252,5.252,0,0,0-.393-.5,4.007,4.007,0,0,1,.348-2.03c.3-.657,1.7-3.143,2.238-2.923a.392.392,0,0,1,.292.323,5.5,5.5,0,0,0,.449,3.218,1.328,1.328,0,0,1,.285.036c.2-.591-.162-1.395-.2-2.021.018-.446.036-.876.036-1.3a3.5,3.5,0,0,1,1.081-2.382l-.256.051a1.888,1.888,0,0,0-.879.794c-.106.073-.254.167-.407.277a15.256,15.256,0,0,0-1.664,1.575,20.065,20.065,0,0,0-2.219,3.67c-.214.215-.43.448-.644.68-.446.8.2,1.144.2,1.983-.072.091-.144.18-.234.286-.377.169-1.093.641-.953,1.021.119.32.459.269.723.292a4.1,4.1,0,0,0,.516.032.91.91,0,0,1-.256-.4c-.117-.336-.047-.388.238-.544a4.068,4.068,0,0,1,1.449-.434c.124-.071.231-.142.34-.2a4.3,4.3,0,0,1,1.339.393c.286,0,.681-.072.895.142.34-.249.61-.088.859.161.483-.071,1-.322,1.484-.143a6.785,6.785,0,0,1,2.145.377,3.2,3.2,0,0,0,1.268.322c.305.124.61.249.912.391.519.072,1.251.5.679,1.074a19.922,19.922,0,0,1-2.324-.966,18.96,18.96,0,0,1-1.967-.572h-1.162c-1.247.063-3.574-.344-4.5-.108h0a6.863,6.863,0,0,0-1.234.233l-.161.269c.107.285.2.572.286.875v1.894c-.161.875-.323,1.771-.5,2.664a5.818,5.818,0,0,1-2.109,2.11c-.25,0-.5.018-.769.036-.375-.179-.572-.733-1.055-.554-.339.446.126,1.286-.249,1.662a1.525,1.525,0,0,1-.715-.269c-.161-.339-.323-.66-.483-.983-.858.3-.661,1.306-.841,2.038-.088.072-.177.142-.285.215.018.089.036.179.054.285.357.233.768.393.857.84a1.763,1.763,0,0,1-.482.876,2.253,2.253,0,0,1,.555,2.11c-.161.07-.43.179-.5.339-.179.054-.359.108-.537.161a3.254,3.254,0,0,0-1.109,1.537,4.993,4.993,0,0,0-.553,1.431l.232.053a1.325,1.325,0,0,1,.25-.607c.053-.251.107-.484.161-.715a2.249,2.249,0,0,0,.769-.948,2.952,2.952,0,0,0,.661-.589,3.3,3.3,0,0,1,1.018-.162c.448.216.393.162.393.7-.213.144-.428.286-.643.43l-1.2,1.2a12.156,12.156,0,0,0-.714,2.2c.036.374.072.767.106,1.16.09.322.287.715-.035.929-1.2-.2-1.5-1.732-1.788-2.7a4.579,4.579,0,0,1,1.269-4.363c.286-.249.483-.339.537-.713-1.851-.647-4.169-4.868-1.18-7.007,1.055-.341.5,1.3.448,1.787.052.2.089.393.125.59.142.215.267.43.393.662a1.865,1.865,0,0,1,.572.41l.035-.214c-.377-.179-.555-.928-.627-1.341a2.219,2.219,0,0,1,1.537-2.52l.162-.213a2.024,2.024,0,0,0-2.006,0,4.518,4.518,0,0,0-2.22,1.632,3.1,3.1,0,0,0-.577,2.7,6.392,6.392,0,0,0,1.729,2.92,1.326,1.326,0,0,1,.676.62c.2.488-.19.679-.5.954a2.429,2.429,0,0,1-.2.333,4.97,4.97,0,0,0,.165,5.933,3.93,3.93,0,0,0,2.4,1.51c1.5.321.2-.549-.071-2.29v-.769a5.821,5.821,0,0,0,.323-1.356c.374-.591.537-1.019.7-1.271.285-.179.554-.357.822-.518.466.268.412.43.446,1.037a4.715,4.715,0,0,0,1.019,1.663,2.012,2.012,0,0,0,1.556.321l.16-.269c-.036-.106-.071-.2-.107-.285-.555-.787-.769-1.537.018-2.324a2.286,2.286,0,0,0,.752.8,4.628,4.628,0,0,0,2.268.531c.724.072,1.208.238.607-.737-.947-.626-.823-1.286-.607-2.341a4.748,4.748,0,0,1,1.2-1.1c2.9-1.932,6.289-4.159,8.053-8.349a10.3,10.3,0,0,0,.827-2.99c.265-.145.674-.081.851-.271.709-.767-.459-1.146-.687-1.684a.952.952,0,0,1-.054-.475,1.319,1.319,0,0,1,.708-1.026,1.231,1.231,0,0,0,.45-.357A.7.7,0,0,0,277.56,211.03Zm-11.575.668a.981.981,0,0,1-.661-.554c.069-.107.089-.232.249-.232.5.2.84.232.929.822A4.522,4.522,0,0,0,265.985,211.7Zm9.458.733c-.412-.035-.823-.054-1.251-.072l.017-.089.7-.107c.214-.321,1.019-.714,1.322-.412C276.068,212.091,275.745,212.2,275.443,212.43Zm-2.843,1.859c.823.2.929,1,.179,1.447a2.406,2.406,0,0,0-.359-.231C272.3,215.093,272.063,214.467,272.6,214.289Zm.322,3.628-.142.179a3.152,3.152,0,0,0-.323-.2,2,2,0,0,0,.036-.3,1.969,1.969,0,0,1,.3-.036C272.867,217.648,272.867,217.648,272.921,217.917Zm-1.61-3.718c.285.43-.07.788-.249,1.162-.357-.071-.357-.071-.43-.141C270.579,214.665,270.561,213.95,271.312,214.2Zm.072,3.791c-.286-.161-.34-.179-.34-.519l.322-.108C271.616,217.578,271.456,217.739,271.384,217.99Zm.339.285c.733.269.16,1.056-.375,1.162-.072-.161-.072-.161-.286-.357a1.493,1.493,0,0,1,.249-.823A3.028,3.028,0,0,1,271.723,218.275Zm-1.636-1.54c.041-.244.2-.417.357-.391s.251.246.212.488-.2.416-.357.39S270.046,216.977,270.087,216.735Zm.412,1.418c-.019.122-.1.208-.177.195s-.127-.122-.108-.244.1-.206.18-.193S270.519,218.03,270.5,218.153Zm-.58.533h.268c.018.2.053.251-.018.412l-.268-.071A2.233,2.233,0,0,0,269.918,218.686Zm-8.243,3.5c.375-.125.519.288.358.574-.107-.072-.232-.145-.358-.216Zm-2.164,1.677a1.034,1.034,0,0,1,.062-.615.916.916,0,0,1,.568.269A.822.822,0,0,1,259.512,223.866Zm1.341,4.581a3.337,3.337,0,0,1-1.217-2.342,4.933,4.933,0,0,0,.036-.519c.072.02.161.18.269.27C260.246,226.551,261.122,227.642,260.853,228.447Zm1.18,3.627c-.8-.34-1-1.574-1-2.359a2.218,2.218,0,0,1,.393-1.02,1.684,1.684,0,0,1,.3.142c.2.466-.053.788-.053,1.271C261.961,230.7,262.48,231.485,262.034,232.074Zm-.107-5.434.035-.233.126.018a.34.34,0,0,1-.053.323Zm1.054,1.271a.638.638,0,0,1-.41-.305C262.5,226.676,263.606,227.5,262.98,227.911Zm.538-1.271a1.017,1.017,0,0,1,.3-.716c.466.234.269.627-.052.949Zm1.751,3.968a5.647,5.647,0,0,1-1.144-.751c-.2-.411-.286-1.18.2-1.411.143.285.053.7.25.893.625,0-.143-1.109.68-1.234.161.645.177,1.3.393,1.949C265.645,230.43,265.645,230.484,265.27,230.608Zm-.3-4.468c.3.427.321.427-.056.8C264.626,226.712,264.537,226.248,264.967,226.14Zm-.026-1.051c.146-.077.3-.059.354.036s-.027.237-.173.312-.3.059-.354-.038S264.8,225.164,264.941,225.089Zm1.153,2.226c-.145.076-.3.06-.353-.037s.027-.235.173-.31.306-.06.356.037S266.24,227.239,266.094,227.315Zm.409-1.175c-.125.036-.269.072-.41.108l-.144-.162c-.09-.446.017-.626.447-.751C266.7,225.55,266.664,225.819,266.5,226.14Zm-.427-1.718.182-.183.183.183-.183.183Zm-1.719.411a2.977,2.977,0,0,1-1.5.788c-.7.393-.7.393-.8.519-.106-.036-.213-.072-.339-.108-.679.108-1.09.126-1.179-.607.035-.483.035-.483.107-.644,2.307-1.372,3.631-2.237,4.826-5.755.126-.77.25-1.537.375-2.308.036-.8.054-1.589.072-2.376.126-.375.18-.43.537-.572.018-.088.018-.088-.071-.268.239.428,3.287.411,3.378.7a21.954,21.954,0,0,1-.393,3.219c-.482,1.144-.446,2.536-1.448,3.414C266.9,222.139,265.976,224.162,264.358,224.833Zm4.9-3.768c-.072.125-.161.269-.251.41-.34-.161-.518-.322-.3-.769.125-.054.25-.089.358-.125C269.132,220.742,269.2,220.9,269.257,221.065Zm-1.716,2.358-.251.036-.036-.179.269.054Zm.357.733c.3.43-.017.8-.357,1.056-.393-.054-.393-.2-.5-.644C267.128,223.942,267.486,224.12,267.9,224.155Zm-.142,1.922c-.219.111-.455.087-.531-.058s.044-.351.261-.464.455-.087.53.057S267.974,225.963,267.755,226.077Zm.393-3.565a2.088,2.088,0,0,0-.323-.071c-.107-.359.017-.519.375-.574C268.432,222.047,268.273,222.315,268.148,222.512Zm.32.858.163-.107c.464,0,.374.233.374.589-.429-.071-.429-.071-.518-.142A1.872,1.872,0,0,0,268.468,223.369Zm.859,1.412c-.268-.072-.268-.072-.357-.161a1.828,1.828,0,0,0,.035-.286c.375-.375.429-.036.466.305Zm.3-2.091c-.089.036-.2.072-.3.106a.563.563,0,0,1-.089-.785,1.975,1.975,0,0,1,.359.089C269.666,222.3,269.757,222.457,269.63,222.69Zm.234-2.146c-.107-.035-.234-.071-.357-.106a.7.7,0,0,1-.053-.8l.43-.055A.9.9,0,0,1,269.864,220.545Zm.232.341.126-.053a.651.651,0,0,1,.268,1.035,2.162,2.162,0,0,0-.357-.07A1.222,1.222,0,0,1,270.1,220.885Zm.393,2.931c-.16-.054-.322-.088-.393-.233-.053-.607.018-.947.716-.947C271.312,222.993,270.882,223.583,270.49,223.816Zm.573-4.237.232.072c.25.251.321.875-.089,1C270.579,220.527,270.687,219.955,271.062,219.579Zm1.109,2.4c-.18.142-.357.285-.537.429l-.214-.18c-.286-.678-.125-1.035.519-1.035C272.188,221.35,272.171,221.708,272.171,221.976Zm-.018-5.257-.233.163a.915.915,0,0,1-.645-.413C271.275,215.039,272.474,215.756,272.153,216.719Zm1.442,2.664c-.044.31-.22.534-.393.5l-.03-.008v.012a.939.939,0,0,1-.358,1.268,1.23,1.23,0,0,1-.5-.3c-.215-.662.053-.823.644-.931v-.34c-.286-.285-.108-.607.072-.946.41-.072.41.036.571.375l-.017.042A.864.864,0,0,1,273.594,219.383Zm.114-2.145a2.35,2.35,0,0,0-.358-.035,1.539,1.539,0,0,1-.036-.984C274.083,216.113,274.4,216.9,273.708,217.238Zm.661,1.073a2.717,2.717,0,0,0-.394-.179.849.849,0,0,1,.8-.858A.894.894,0,0,1,274.369,218.311Zm.5-2.109c-.126-.016-.25-.035-.375-.052a1.182,1.182,0,0,1-.214-.948c.374-.234.625-.09.893.177C275.21,215.862,275.281,215.916,274.87,216.2Z" transform="translate(-189.977 -148.889)"/><path d="M123.1,226.552a6.363,6.363,0,0,0,1.727-2.92,3.085,3.085,0,0,0-.576-2.7,4.512,4.512,0,0,0-2.22-1.632,2.024,2.024,0,0,0-2.006,0l.161.213a2.219,2.219,0,0,1,1.537,2.52c-.071.413-.249,1.162-.625,1.341l.035.214a1.914,1.914,0,0,1,.572-.41c.127-.232.251-.447.393-.662.036-.2.072-.393.126-.59-.054-.483-.608-2.128.448-1.787,2.989,2.14.669,6.361-1.181,7.007.053.374.252.463.535.713a4.571,4.571,0,0,1,1.27,4.363c-.285.965-.59,2.5-1.786,2.7-.324-.214-.126-.607-.036-.929.036-.392.07-.786.106-1.16a12.03,12.03,0,0,0-.714-2.2l-1.2-1.2c-.214-.143-.43-.286-.644-.43,0-.535-.052-.481.393-.7a3.293,3.293,0,0,1,1.019.162,2.963,2.963,0,0,0,.662.589,2.243,2.243,0,0,0,.769.948c.053.231.106.464.159.715a1.326,1.326,0,0,1,.253.607l.231-.053a4.942,4.942,0,0,0-.555-1.431,3.252,3.252,0,0,0-1.108-1.537c-.178-.052-.357-.106-.536-.161-.072-.161-.339-.269-.5-.339a2.26,2.26,0,0,1,.553-2.11,1.78,1.78,0,0,1-.482-.876c.09-.446.5-.607.859-.84.017-.106.034-.2.052-.285-.106-.072-.2-.143-.285-.215-.178-.732.017-1.734-.841-2.038-.161.323-.321.644-.482.983a1.528,1.528,0,0,1-.716.269c-.375-.375.091-1.216-.25-1.662-.482-.179-.679.375-1.054.554-.267-.018-.518-.036-.768-.036a5.832,5.832,0,0,1-2.11-2.11c-.179-.893-.339-1.789-.5-2.664v-1.894c.088-.3.177-.59.285-.875l-.161-.269a6.888,6.888,0,0,0-1.232-.233h0c-.932-.236-3.259.171-4.506.108h-1.162a18.832,18.832,0,0,1-1.967.572,19.9,19.9,0,0,1-2.324.966c-.572-.572.161-1,.68-1.074.3-.142.607-.267.912-.391a3.193,3.193,0,0,0,1.268-.322,6.776,6.776,0,0,1,2.146-.377c.482-.179,1,.072,1.483.143.251-.249.518-.41.859-.161.215-.214.608-.142.894-.142a4.318,4.318,0,0,1,1.34-.393c.109.054.216.126.342.2a4.074,4.074,0,0,1,1.447.434c.285.156.353.208.24.544a.925.925,0,0,1-.255.4,4.124,4.124,0,0,0,.514-.032c.264-.023.605.029.723-.292.14-.38-.575-.852-.953-1.021-.089-.105-.16-.2-.231-.286,0-.839.642-1.178.2-1.983-.215-.232-.43-.465-.644-.68a19.987,19.987,0,0,0-2.22-3.67,15.02,15.02,0,0,0-1.662-1.575c-.151-.11-.3-.2-.408-.277a1.878,1.878,0,0,0-.878-.794l-.255-.051a3.489,3.489,0,0,1,1.079,2.382c0,.429.02.859.036,1.3-.036.626-.394,1.43-.2,2.021a1.348,1.348,0,0,1,.287-.036,5.509,5.509,0,0,0,.447-3.218.393.393,0,0,1,.292-.323c.537-.22,1.94,2.266,2.238,2.923a4,4,0,0,1,.348,2.03,5.112,5.112,0,0,0-.393.5c-.268.107-.52.214-.769.339a29.4,29.4,0,0,1-5.722.465c-.519-.071-1.018-.144-1.52-.215-.642-.249-1.2-.267-1.375-1.018a5.446,5.446,0,0,1,1.448-3.057c.411-.733.947-1.358,1.411-2.036,4.279-3.333,2.023-2.469-.6-.026a8.169,8.169,0,0,0-1.6,2.205,4.5,4.5,0,0,0-.742,1.167l-.366.992c-.086.294-.086.819-.387.871a1.275,1.275,0,0,0-.676.414.7.7,0,0,0-.168.8,1.22,1.22,0,0,0,.448.357,1.315,1.315,0,0,1,.708,1.026.944.944,0,0,1-.054.475c-.228.538-1.4.918-.687,1.684.179.19.586.127.852.271a10.242,10.242,0,0,0,.825,2.99c1.763,4.19,5.157,6.417,8.053,8.349a4.8,4.8,0,0,1,1.205,1.1c.213,1.055.339,1.715-.61,2.341-.6.975-.115.809.61.737a4.627,4.627,0,0,0,2.268-.531,2.274,2.274,0,0,0,.753-.8c.787.787.572,1.537.018,2.324-.036.088-.072.179-.108.285l.161.269a2.01,2.01,0,0,0,1.555-.321,4.7,4.7,0,0,0,1.02-1.663c.036-.607-.018-.769.447-1.037.268.161.535.339.822.518.163.251.323.679.7,1.271a5.7,5.7,0,0,0,.321,1.357v.769c-.267,1.741-1.574,2.611-.072,2.29a3.934,3.934,0,0,0,2.4-1.51,4.971,4.971,0,0,0,.164-5.933,2.527,2.527,0,0,1-.207-.333c-.307-.275-.692-.466-.495-.954A1.317,1.317,0,0,1,123.1,226.552Zm-9.618-15.64c.161,0,.179.125.25.232a.984.984,0,0,1-.662.554,4.565,4.565,0,0,0-.518.036C112.64,211.145,112.979,211.108,113.479,210.912Zm-9.331,1.251.7.107.018.089c-.429.017-.84.036-1.25.072-.305-.233-.626-.339-.788-.679C103.128,211.449,103.931,211.842,104.148,212.163Zm15.331,11.088a1.033,1.033,0,0,1,.061.615.818.818,0,0,1-.628-.346A.908.908,0,0,1,119.479,223.252Zm-2.1-1.062v.357c-.125.072-.251.144-.357.216C116.858,222.478,117,222.065,117.377,222.19Zm-8.223-3.162-.269.071c-.072-.161-.036-.215-.018-.412h.269A2.258,2.258,0,0,0,109.154,219.028Zm-.545-2.683c.156-.026.317.147.358.391s-.054.459-.213.488-.317-.148-.355-.39S108.452,216.372,108.609,216.345Zm.122,2c-.078.014-.156-.072-.178-.194s.029-.231.106-.243.158.073.179.193S108.81,218.334,108.731,218.348Zm-.99-4.148c.751-.249.733.466.68,1.021-.071.07-.071.07-.43.141C107.813,214.988,107.454,214.629,107.74,214.2Zm-.072,3.791c-.071-.251-.233-.412.018-.626l.323.108C108.009,217.812,107.955,217.83,107.668,217.991Zm.323,1.09c-.214.2-.214.2-.286.357-.536-.106-1.108-.893-.375-1.162a2.993,2.993,0,0,1,.412-.018A1.492,1.492,0,0,1,107.991,219.081Zm-1.537-4.79c.536.178.3.8.177,1.216a2.3,2.3,0,0,0-.356.231C105.523,215.291,105.631,214.488,106.454,214.29Zm.142,3.612a2.925,2.925,0,0,0-.321.2l-.145-.179c.054-.269.054-.269.127-.357a1.952,1.952,0,0,1,.3.036A1.992,1.992,0,0,0,106.6,217.9Zm-2.718-2.522c.269-.267.518-.411.893-.177a1.188,1.188,0,0,1-.213.948c-.126.017-.251.036-.375.052C103.772,215.917,103.843,215.863,103.879,215.379Zm.8,2.932a.893.893,0,0,1-.412-1.037.849.849,0,0,1,.8.858A2.725,2.725,0,0,0,104.684,218.312Zm1.054-2.091a1.543,1.543,0,0,1-.035.984,2.357,2.357,0,0,0-.359.035C104.648,216.9,104.969,216.114,105.737,216.22Zm1,4.63a1.212,1.212,0,0,1-.5.3.938.938,0,0,1-.356-1.268v-.012l-.03.008c-.173.036-.35-.188-.395-.5a.934.934,0,0,1,.012-.332l-.016-.042c.161-.339.161-.447.572-.375.179.339.357.661.072.946v.34C106.685,220.028,106.954,220.188,106.739,220.851Zm1.038-4.381a.915.915,0,0,1-.644.413l-.233-.163C106.578,215.757,107.777,215.04,107.777,216.47Zm-.143,5.756-.214.18c-.179-.144-.358-.286-.536-.429,0-.268-.018-.626.231-.787C107.758,221.19,107.919,221.547,107.633,222.225Zm.125-2.573.232-.072c.376.375.482.947-.141,1.073C107.435,220.528,107.507,219.9,107.758,219.652Zm1.2,3.932c-.071.145-.231.179-.393.233-.392-.233-.822-.823-.32-1.18C108.939,222.637,109.009,222.977,108.955,223.584Zm-.035-1.786a2.208,2.208,0,0,0-.358.07.652.652,0,0,1,.268-1.035l.125.053A1.229,1.229,0,0,1,108.921,221.8Zm.249-2.218.43.055a.7.7,0,0,1-.052.8c-.126.035-.251.072-.358.106A.9.9,0,0,1,109.169,219.58Zm.287,2.521a1.962,1.962,0,0,1,.357-.089.562.562,0,0,1-.09.785c-.106-.034-.213-.07-.3-.106A.624.624,0,0,1,109.457,222.1Zm.339-1.035c.054-.161.126-.323.2-.484.106.036.231.071.357.125.213.447.036.607-.3.769C109.958,221.334,109.868,221.19,109.8,221.066Zm-.071,3.717-.141-.142c.036-.341.089-.68.464-.305a1.764,1.764,0,0,0,.036.286C109.994,224.71,109.994,224.71,109.724,224.782Zm.84-1.072c-.088.071-.088.071-.518.142,0-.357-.089-.589.375-.589l.161.107A2.051,2.051,0,0,0,110.564,223.711Zm.287-1.843c.358.054.482.215.375.574a2.037,2.037,0,0,0-.321.071C110.779,222.316,110.619,222.048,110.852,221.868Zm.975,4.152c-.074.145-.31.169-.53.058s-.335-.323-.26-.466.312-.17.529-.057S111.9,225.877,111.827,226.02Zm-.315-.808c-.339-.251-.66-.626-.356-1.056.41-.035.769-.213.858.412C111.905,225.015,111.905,225.158,111.512,225.212Zm0-1.789.018-.088.269-.054-.036.179Zm1.038,2.718c-.161-.322-.2-.59.108-.8.43.124.535.305.446.751l-.143.162C112.819,226.213,112.676,226.178,112.549,226.141Zm.061-1.718.183-.183.183.183-.183.183Zm.7,2.856c-.047.1-.208.113-.354.037s-.222-.214-.173-.311.208-.113.354-.037S113.361,227.184,113.311,227.279Zm1.616,2.579a5.7,5.7,0,0,1-1.143.751c-.375-.125-.375-.179-.375-.554.213-.644.231-1.3.391-1.949.824.125.056,1.234.68,1.234.2-.2.108-.608.249-.893C115.214,228.678,115.123,229.447,114.927,229.858Zm-.644-4.458c-.047.1-.208.113-.353.038s-.224-.215-.174-.312.208-.113.353-.036S114.335,225.3,114.284,225.4Zm-.142,1.547c-.376-.378-.358-.378-.054-.8C114.516,226.249,114.426,226.713,114.141,226.946Zm1.144-.072c-.322-.322-.52-.715-.054-.949a1.016,1.016,0,0,1,.3.716Zm-.592-2.04c-1.617-.671-2.538-2.694-3.557-4-1-.877-.965-2.27-1.447-3.414a21.8,21.8,0,0,1-.393-3.219c.089-.285,3.144-.267,3.38-.7-.09.18-.09.18-.072.268.357.142.411.2.536.572.018.787.036,1.574.072,2.376.124.771.249,1.538.374,2.308,1.2,3.518,2.522,4.383,4.829,5.755.072.16.072.16.106.644-.09.733-.5.715-1.18.607-.124.036-.231.072-.339.108-.107-.126-.107-.126-.8-.519A2.988,2.988,0,0,1,114.693,224.834Zm2.433,1.807-.106.108a.338.338,0,0,1-.054-.323l.125-.018Zm-.642.965a.644.644,0,0,1-.412.305C115.446,227.5,116.555,226.677,116.484,227.606Zm.536,4.468c-.448-.589.071-1.376.357-1.966,0-.482-.251-.8-.054-1.271a1.732,1.732,0,0,1,.3-.142,2.227,2.227,0,0,1,.393,1.02C118.02,230.5,117.823,231.735,117.019,232.075Zm1.179-3.627c-.268-.8.61-1.9.913-2.592.108-.09.2-.25.269-.27a5.055,5.055,0,0,0,.035.519A3.331,3.331,0,0,1,118.2,228.447Z" transform="translate(-66.599 -148.89)"/></g><g transform="translate(0 4)"><text class="d" transform="translate(325 146)"><tspan x="0" y="0">Government of</tspan><tspan class="e" y="0"> </tspan><tspan class="f" y="0">Uttar Pradesh</tspan></text><text class="g" transform="translate(325 172)"><tspan x="0" y="0">E-MB &amp; E-Billing Portal</tspan></text></g></g></svg>